<svg width="25" height="25" viewBox="0 0 25 25" fill="none" xmlns="http://www.w3.org/2000/svg">
<g clip-path="url(#clip0_418_3902)">
<path d="M9.86108 0.570238C10.4236 0.724926 10.8736 1.06243 11.1595 1.54524C11.3939 1.94368 11.4689 2.33274 11.4689 3.16711V3.86555L12.1205 3.8843C12.833 3.89836 12.908 3.92649 13.1283 4.2218C13.2642 4.39993 13.2642 4.75618 13.1283 4.9343C12.908 5.2343 12.833 5.25774 12.097 5.2718L11.422 5.28586V5.41711C11.422 5.64211 11.2392 6.27493 11.0705 6.62649C10.658 7.50305 10.0111 8.14524 9.11577 8.55774C8.51108 8.83899 8.17358 8.9093 7.43765 8.9093C6.92202 8.9093 6.73452 8.89055 6.43921 8.80618C5.22515 8.4593 4.32046 7.69055 3.80483 6.57493C3.49546 5.9093 3.48608 5.84368 3.46733 4.00618C3.4439 2.17805 3.45796 2.05618 3.72046 1.56868C3.86577 1.2968 4.29702 0.879613 4.5689 0.738988C5.01421 0.5093 5.15483 0.499926 7.46108 0.504613C9.16265 0.504613 9.6689 0.518676 9.86108 0.570238Z" fill="#DD3836"/>
<path d="M19.9297 7.78437C20.1219 7.86875 20.3187 8.10781 20.3515 8.29531C20.3656 8.37969 20.375 9.62187 20.3656 11.0562C20.3515 13.6062 20.3515 13.6672 20.2531 13.7937C20.2015 13.8641 20.0984 13.9672 20.0281 14.0187C19.9015 14.1172 19.8547 14.1172 17.1265 14.1172H14.3515L14.1922 14.0047C13.9015 13.7984 13.9062 13.85 13.9062 10.9297C13.9062 8.00937 13.9015 8.06094 14.1922 7.85469C14.3469 7.74687 14.3797 7.74219 15.3922 7.72812L16.4375 7.71406V8.40781C16.4375 9.23281 16.4844 9.36406 16.8265 9.5375C17.089 9.67344 17.3515 9.64531 17.5719 9.4625C17.8062 9.26562 17.8437 9.11094 17.8437 8.375V7.71875H18.814C19.5172 7.72344 19.8265 7.7375 19.9297 7.78437Z" fill="#DD3836"/>
<path d="M8.18756 10.414C8.81569 10.5453 9.38288 10.7984 9.85163 11.1546C10.0063 11.2718 11.0469 12.3078 12.1673 13.4562L14.2016 15.5468H16.9344C18.7954 15.5468 19.7469 15.5656 19.9157 15.5984C20.3188 15.6875 20.6563 15.875 20.961 16.1796C21.6126 16.8312 21.7673 17.7828 21.3548 18.6031C21.0688 19.1703 20.5016 19.5968 19.8829 19.7187C19.6813 19.7562 18.6501 19.7656 16.2735 19.7562C13.0157 19.7421 12.9407 19.7375 12.6829 19.639C12.2282 19.4703 12.111 19.3906 11.6423 18.9312L11.1876 18.4812V21.2046V23.9234L11.0798 24.125C10.8688 24.5234 11.0985 24.5046 7.26881 24.4906L3.88913 24.4765L3.72038 24.3453C3.61256 24.2656 3.53288 24.1484 3.50006 24.0406C3.46256 23.9187 3.45319 22.3296 3.46256 18.7343L3.47663 13.6015L3.57975 13.2781C3.81882 12.5328 4.14694 12.0031 4.67663 11.4875C5.20631 10.9765 5.71725 10.6812 6.42975 10.4796C6.861 10.3531 7.76569 10.3203 8.18756 10.414Z" fill="#DD3836"/>
</g>
<defs>
<clipPath id="clip0_418_3902">
<rect width="24" height="24" fill="white" transform="matrix(-1 0 0 1 24.5 0.5)"/>
</clipPath>
</defs>
</svg>
