<svg width="178" height="25" viewBox="0 0 178 25" fill="none" xmlns="http://www.w3.org/2000/svg">
<path d="M0.274378 24V1.12H5.39438V19.84H22.1304V24H0.274378ZM35.6001 24.16C31.5255 24.16 28.3681 23.1893 26.1281 21.248C23.8881 19.2853 22.7681 16.384 22.7681 12.544C22.7681 8.72533 23.8881 5.84533 26.1281 3.904C28.3681 1.94133 31.6001 0.959999 35.8241 0.959999H41.5841C45.8081 0.959999 49.0401 1.94133 51.2801 3.904C53.5201 5.84533 54.6401 8.72533 54.6401 12.544C54.6401 16.384 53.5201 19.2853 51.2801 21.248C49.0401 23.1893 45.8615 24.16 41.7441 24.16H35.6001ZM36.1761 5.12C33.8081 5.12 31.9628 5.54667 30.6401 6.4C29.3175 7.25333 28.4855 8.608 28.1441 10.464H49.2641C48.9228 8.608 48.0908 7.25333 46.7681 6.4C45.4455 5.54667 43.6001 5.12 41.2321 5.12H36.1761ZM36.2721 20H41.2321C43.6215 20 45.4668 19.5733 46.7681 18.72C48.0908 17.8667 48.9228 16.5013 49.2641 14.624H28.1441C28.4855 16.5013 29.3175 17.8667 30.6401 18.72C31.9628 19.5733 33.8401 20 36.2721 20ZM69.2704 24.16C65.3664 24.16 62.3157 23.1893 60.1184 21.248C57.9424 19.2853 56.8544 16.384 56.8544 12.544C56.8544 8.72533 57.9637 5.84533 60.1824 3.904C62.4224 1.94133 65.665 0.959999 69.9104 0.959999H82.0704V5.12H70.2624C67.4677 5.12 65.3984 5.70667 64.0544 6.88C62.7317 8.05333 62.0704 9.94133 62.0704 12.544C62.0704 15.0187 62.657 16.8533 63.8304 18.048C65.0037 19.2213 66.721 19.8613 68.9824 19.968V11.072H83.3184V24.16H69.2704ZM73.7824 20H78.1984V15.232H73.7824V20ZM87.4706 24V1.12H91.7586L102.351 8.544H102.511L113.103 1.12H117.391V24H112.271V7.52L105.007 12.384V24H99.8866V12.384L92.5906 7.52V24H87.4706ZM119.637 24L129.941 1.12H137.845L148.149 24H142.581L140.405 19.168H127.381L125.205 24H119.637ZM129.237 15.008H138.549L134.101 5.12H133.685L129.237 15.008ZM148.473 24L157.049 12.576L148.473 1.12H154.713L161.593 10.496H164.537L171.417 1.12H177.657L169.081 12.576L177.657 24H171.385L164.537 14.656H161.593L154.745 24H148.473Z" fill="#8A2BE2"/>
</svg>
