<svg width="21" height="25" viewBox="0 0 21 25" fill="none" xmlns="http://www.w3.org/2000/svg">
<mask id="mask0_581_1788" style="mask-type:luminance" maskUnits="userSpaceOnUse" x="0" y="0" width="21" height="25">
<path d="M5 4C5 3.60218 5.15804 3.22064 5.43934 2.93934C5.72064 2.65804 6.10218 2.5 6.5 2.5H14.5C14.697 2.5 14.892 2.5388 15.074 2.61418C15.256 2.68956 15.4214 2.80005 15.5607 2.93934C15.6999 3.07863 15.8104 3.24399 15.8858 3.42597C15.9612 3.60796 16 3.80302 16 4C16 4.19698 15.9612 4.39204 15.8858 4.57403C15.8104 4.75601 15.6999 4.92137 15.5607 5.06066C15.4214 5.19995 15.256 5.31044 15.074 5.38582C14.892 5.4612 14.697 5.5 14.5 5.5H6.5C6.10218 5.5 5.72064 5.34196 5.43934 5.06066C5.15804 4.77936 5 4.39782 5 4ZM5.05 9.06C5.19053 8.88525 5.36844 8.74423 5.57066 8.64732C5.77288 8.55041 5.99426 8.50006 6.2185 8.5H14.7805C15.0049 8.49992 15.2265 8.55018 15.4289 8.6471C15.6313 8.74402 15.8094 8.88512 15.95 9.06L18.169 11.8215C18.3831 12.088 18.4997 12.4197 18.4995 12.7615V21C18.4995 21.3978 18.3415 21.7794 18.0602 22.0607C17.7789 22.342 17.3973 22.5 16.9995 22.5H4C3.60218 22.5 3.22064 22.342 2.93934 22.0607C2.65804 21.7794 2.5 21.3978 2.5 21V12.7615C2.49984 12.4197 2.61644 12.088 2.8305 11.8215L5.05 9.06Z" fill="white" stroke="white" stroke-width="4" stroke-linejoin="round"/>
<path d="M7.5 15.5H13.5M10.5 12.5V18.5" stroke="black" stroke-width="4" stroke-linecap="round" stroke-linejoin="round"/>
</mask>
<g mask="url(#mask0_581_1788)">
<path d="M-1.5 0.5H22.5V24.5H-1.5V0.5Z" fill="#DD3836"/>
</g>
</svg>
