<svg width="22" height="22" viewBox="0 0 22 22" fill="none" xmlns="http://www.w3.org/2000/svg">
<path d="M6.5 0.5C5.94772 0.5 5.5 0.947715 5.5 1.5C5.5 2.05228 5.05228 2.5 4.5 2.5H1.5C1.23478 2.5 0.98043 2.60536 0.792893 2.79289C0.605357 2.98043 0.5 3.23478 0.5 3.5V19.5C0.5 19.7652 0.605357 20.0196 0.792893 20.2071C0.98043 20.3946 1.23478 20.5 1.5 20.5H7.17333C8.01202 20.5 8.51686 19.4924 8.17878 18.7249C7.67503 17.5812 7.44222 16.3262 7.51215 15.0592C7.62066 13.0928 8.45063 11.2356 9.84314 9.84314C11.2356 8.45063 13.0928 7.62066 15.0592 7.51215C16.3262 7.44222 17.5812 7.67503 18.7249 8.17878C19.4924 8.51686 20.5 8.01202 20.5 7.17333V3.5C20.5 3.23478 20.3946 2.98043 20.2071 2.79289C20.0196 2.60536 19.7652 2.5 19.5 2.5H16.5C15.9477 2.5 15.5 2.05228 15.5 1.5C15.5 0.947715 15.0523 0.5 14.5 0.5C13.9477 0.5 13.5 0.947715 13.5 1.5C13.5 2.05228 13.0523 2.5 12.5 2.5H8.5C7.94772 2.5 7.5 2.05228 7.5 1.5C7.5 0.947715 7.05228 0.5 6.5 0.5ZM21.5 15.5C21.5 16.2879 21.3448 17.0681 21.0433 17.7961C20.7417 18.5241 20.2998 19.1855 19.7426 19.7426C19.1855 20.2998 18.5241 20.7417 17.7961 21.0433C17.0681 21.3448 16.2879 21.5 15.5 21.5C14.7121 21.5 13.9319 21.3448 13.2039 21.0433C12.4759 20.7417 11.8145 20.2998 11.2574 19.7426C10.7002 19.1855 10.2583 18.5241 9.95672 17.7961C9.6552 17.0681 9.5 16.2879 9.5 15.5C9.5 13.9087 10.1321 12.3826 11.2574 11.2574C12.3826 10.1321 13.9087 9.5 15.5 9.5C17.0913 9.5 18.6174 10.1321 19.7426 11.2574C20.8679 12.3826 21.5 13.9087 21.5 15.5ZM15.5 11.5C14.9477 11.5 14.5 11.9477 14.5 12.5V15.4998C14.5 15.765 14.6054 16.0194 14.7929 16.2069L16.086 17.5C16.4765 17.8905 17.1095 17.8905 17.5 17.5C17.8905 17.1095 17.8905 16.4765 17.5 16.086L16.7929 15.3789C16.6054 15.1914 16.5 14.937 16.5 14.6718V12.5C16.5 11.9477 16.0523 11.5 15.5 11.5Z" fill="#FF5733"/>
</svg>
