<svg width="39" height="42" viewBox="0 0 39 42" fill="none" xmlns="http://www.w3.org/2000/svg">
<path d="M37.0375 9.25563L21.225 0.60008C20.6966 0.309245 20.1032 0.156738 19.5 0.156738C18.8968 0.156738 18.3034 0.309245 17.775 0.60008L1.9625 9.25563C1.3967 9.56521 0.92463 10.0214 0.595827 10.5762C0.267024 11.1311 0.0936008 11.7642 0.0937501 12.4091V29.5909C0.0936008 30.2358 0.267024 30.8689 0.595827 31.4238C0.92463 31.9786 1.3967 32.4348 1.9625 32.7444L17.775 41.3999C18.3033 41.6911 18.8968 41.8438 19.5 41.8438C20.1032 41.8438 20.6967 41.6911 21.225 41.3999L37.0375 32.7444C37.6033 32.4348 38.0754 31.9786 38.4042 31.4238C38.733 30.8689 38.9064 30.2358 38.9062 29.5909V12.4091C38.9064 11.7642 38.733 11.1311 38.4042 10.5762C38.0754 10.0214 37.6033 9.56521 37.0375 9.25563ZM19.5 4.57117L32.4375 11.6563L28.5868 13.764L15.6493 6.68071L19.5 4.57117ZM19.5 18.7359L6.5625 11.6563L11.1553 9.14063L24.0928 16.2221L19.5 18.7359ZM4.40625 15.392L17.3438 22.4716V36.2483L4.40625 29.165V15.392ZM21.6562 36.2483V22.4716L25.9688 20.1123V25.3125C25.9688 25.8844 26.1959 26.4328 26.6003 26.8372C27.0047 27.2416 27.5531 27.4688 28.125 27.4688C28.6969 27.4688 29.2453 27.2416 29.6497 26.8372C30.0541 26.4328 30.2812 25.8844 30.2812 25.3125V17.7513L34.5938 15.392V29.165L21.6562 36.2483Z" fill="#8A2BE2"/>
</svg>
