<svg width="25" height="19" viewBox="0 0 25 19" fill="none" xmlns="http://www.w3.org/2000/svg">
<path d="M5.82969 1.73281C3.43906 2.66562 1.48438 3.44375 1.48438 3.45781C1.48438 3.49531 4.44688 4.64375 4.53125 4.63437C4.60625 4.62969 13.1141 1.325 13.2453 1.25C13.3063 1.21719 13.2969 1.20312 13.1797 1.15625C13.1047 1.12812 12.4203 0.860935 11.6609 0.565622C10.9062 0.27031 10.2641 0.0312476 10.2313 0.0359349C10.2031 0.0359349 8.225 0.799998 5.82969 1.73281Z" fill="#FF5733"/>
<path d="M12.0688 4.17031C9.67344 5.10313 7.71875 5.87656 7.71875 5.89063C7.72344 5.94688 10.25 6.88438 10.3297 6.85625C11.0375 6.59844 19.0156 3.47656 19.0156 3.45313C19.0156 3.41563 16.5688 2.46875 16.4797 2.47344C16.4422 2.47813 14.4594 3.24219 12.0688 4.17031Z" fill="#FF5733"/>
<path d="M0.903122 4.09531C0.85156 4.14687 0.87031 14.1031 0.921872 14.2859C0.959372 14.4125 1.01093 14.4781 1.12343 14.5297C1.20312 14.5672 3.18125 15.3453 5.51562 16.25C7.85 17.1594 9.78594 17.9094 9.81875 17.9234C9.86094 17.9422 9.875 16.8875 9.875 12.7484V7.54531L8.59531 7.04843C7.89687 6.77656 7.28281 6.53749 7.24062 6.52343C7.16562 6.49062 7.15625 6.57031 7.14687 7.62968C7.13281 8.66562 7.12344 8.77343 7.05312 8.78749C7.00625 8.79687 6.69218 8.56249 6.25625 8.19218C5.86718 7.85468 5.51093 7.57812 5.47343 7.57812C5.43125 7.57812 5.13593 7.66249 4.8125 7.76562C4.48906 7.86874 4.17968 7.95312 4.12343 7.95312H4.01562L4.00625 6.60781L3.99218 5.25781L2.63281 4.73281C1.8875 4.44218 1.19843 4.17031 1.10468 4.13281C1.01093 4.09999 0.921872 4.08124 0.903122 4.09531Z" fill="#FF5733"/>
<path d="M15.0922 5.81093L10.625 7.54999V12.7484C10.625 15.8234 10.6437 17.9375 10.6672 17.9281C10.6906 17.9187 11.6094 17.5672 12.7062 17.1406C14.2766 16.5312 14.6984 16.3531 14.675 16.2969C14.3844 15.5234 14.2906 14.2484 14.4594 13.4375C14.9516 11.0891 16.8641 9.40155 19.2266 9.22343L19.6016 9.1953L19.6156 6.66874C19.6203 5.27655 19.6109 4.12343 19.5922 4.10468C19.5687 4.08593 17.5437 4.85468 15.0922 5.81093Z" fill="#FF5733"/>
<path d="M18.9453 9.99687C18.8937 10.0062 18.7062 10.0531 18.5281 10.0906C17.2578 10.3812 16.0859 11.3469 15.5187 12.5656C15.2562 13.1375 15.1672 13.5359 15.1391 14.225C15.1109 14.9141 15.1625 15.3687 15.3312 15.8656C15.575 16.5828 15.9453 17.1594 16.4891 17.6844C16.9203 18.0922 17.1687 18.2656 17.7219 18.5281C18.3406 18.8187 18.8562 18.9359 19.5781 18.9359C20.7828 18.9406 21.7906 18.5469 22.6578 17.7312C23.4172 17.0141 23.8766 16.1703 24.0312 15.2C24.1156 14.6891 24.0687 13.6953 23.9375 13.2547C23.5578 11.9328 22.5922 10.8359 21.3641 10.3203C20.7687 10.0672 20.4594 10.0062 19.7187 9.99218C19.3437 9.98281 18.9969 9.98281 18.9453 9.99687ZM22.0953 12.3125C22.1797 12.3594 22.2781 12.4531 22.3203 12.5187C22.4328 12.6875 22.4281 13.0203 22.3062 13.2078C22.2547 13.2969 21.4719 14.0984 20.5766 14.9937C19.2547 16.3062 18.9125 16.625 18.7719 16.6625C18.5703 16.7187 18.3266 16.6672 18.1766 16.5406C18.0266 16.4141 16.6672 14.6937 16.6156 14.5625C16.4937 14.2531 16.6625 13.8734 16.9859 13.7375C17.3609 13.5781 17.5391 13.6812 18.125 14.4266C18.3922 14.7594 18.6219 15.0312 18.6359 15.0312C18.65 15.0312 19.2641 14.4312 20 13.6953C20.7359 12.9641 21.4016 12.3312 21.4766 12.2937C21.6687 12.1953 21.9172 12.2 22.0953 12.3125Z" fill="#FF5733"/>
</svg>
