<svg width="21" height="25" viewBox="0 0 21 25" fill="none" xmlns="http://www.w3.org/2000/svg">
<path d="M8.667 16.302L8.661 16.288C8.54029 16.2595 8.42025 16.2281 8.301 16.194L8.292 16.191C7.15129 15.8631 6.09783 15.2855 5.208 14.5C4.22939 13.6367 3.47682 12.5471 3.01591 11.3263C2.555 10.1054 2.39974 8.79034 2.56368 7.49571C2.72761 6.20108 3.20576 4.9662 3.95644 3.89876C4.70711 2.83132 5.70751 1.96372 6.87042 1.37161C8.03332 0.779501 9.32342 0.480859 10.6282 0.501725C11.933 0.522591 13.2129 0.862332 14.3563 1.49132C15.4997 2.12032 16.4718 3.01946 17.188 4.11036C17.9041 5.20126 18.3425 6.45079 18.465 7.75C18.504 8.163 18.165 8.5 17.75 8.5C17.336 8.5 17.005 8.163 16.957 7.751C16.8248 6.61429 16.3948 5.53263 15.7106 4.61536C15.0263 3.69809 14.1121 2.97772 13.0602 2.52708C12.0082 2.07644 10.856 1.9115 9.71992 2.04892C8.58383 2.18635 7.50416 2.62128 6.59005 3.30975C5.67594 3.99822 4.95979 4.91581 4.51399 5.96978C4.0682 7.02375 3.90856 8.17673 4.05122 9.31218C4.19388 10.4476 4.63377 11.5253 5.32644 12.4362C6.01911 13.3471 6.93999 14.0591 7.996 14.5L8.036 14.517C8.236 14.599 8.44133 14.6713 8.652 14.734C8.829 14.3063 9.14886 13.9532 9.55706 13.735C9.96525 13.5168 10.4365 13.4469 10.8905 13.5373C11.3444 13.6276 11.753 13.8727 12.0465 14.2306C12.34 14.5885 12.5003 15.0371 12.5 15.5C12.5004 15.9596 12.3426 16.4054 12.0529 16.7623C11.7632 17.1192 11.3595 17.3654 10.9096 17.4595C10.4597 17.5537 9.99111 17.49 9.58267 17.2792C9.17423 17.0683 8.85087 16.7233 8.667 16.302ZM7.681 17.574C5.90454 17.0215 4.32939 15.9596 3.151 14.52C2.42071 14.6055 1.74727 14.9563 1.25856 15.5057C0.769851 16.055 0.49991 16.7647 0.5 17.5V18.215C0.5 21.933 4.71 24.5 10.5 24.5C16.29 24.5 20.5 21.792 20.5 18.215V17.5C20.5 16.7043 20.1839 15.9413 19.6213 15.3787C19.0587 14.8161 18.2956 14.5 17.5 14.5H13.855C14.0909 15.29 14.0403 16.138 13.7121 16.8944C13.384 17.6507 12.7993 18.267 12.0613 18.6345C11.3232 19.002 10.4791 19.0971 9.67773 18.9031C8.87639 18.7091 8.16926 18.2384 7.681 17.574ZM15.5 8.5C15.5 6.988 14.83 5.633 13.769 4.716C13.2366 4.25676 12.6134 3.91496 11.94 3.7129C11.2666 3.51084 10.5582 3.45307 9.86094 3.54335C9.1637 3.63364 8.49333 3.86995 7.89361 4.23687C7.29388 4.60379 6.77828 5.09306 6.38046 5.67275C5.98264 6.25243 5.71154 6.9095 5.58486 7.60106C5.45818 8.29261 5.47878 9.00311 5.64529 9.68617C5.81181 10.3692 6.12051 11.0095 6.55123 11.5652C6.98196 12.1208 7.52503 12.5794 8.145 12.911C8.7893 12.3249 9.62899 12.0001 10.5 12C11.3714 11.9998 12.2114 12.3246 12.856 12.911C13.6549 12.4842 14.3229 11.8484 14.7886 11.0715C15.2543 10.2946 15.5002 9.40578 15.5 8.5Z" fill="#FF5733"/>
</svg>
