<svg width="25" height="25" viewBox="0 0 25 25" fill="none" xmlns="http://www.w3.org/2000/svg">
<g clip-path="url(#clip0_7_935)">
<path d="M12.2656 1.04375C11.3328 1.24531 10.5641 2.00469 10.3391 2.9375C10.1656 3.65937 10.3719 4.61562 10.7937 5.08906C11.1359 5.47344 11.6047 5.64219 12.5516 5.72656C12.9781 5.76406 13.4047 5.68906 13.5406 5.55312C13.6297 5.46406 13.6344 5.42187 13.6062 5.02812C13.5875 4.79375 13.5594 4.475 13.5359 4.32031C13.4937 3.99219 13.5359 3.79062 13.6859 3.65C13.8734 3.47187 14.3047 3.3125 14.8156 3.22812C15.1906 3.16719 15.3125 3.12969 15.3125 3.07812C15.3078 2.9375 15.0828 2.36562 14.9375 2.14062C14.5906 1.60156 13.9625 1.175 13.3203 1.03906C12.9219 0.954687 12.6641 0.954687 12.2656 1.04375Z" fill="#FF5733"/>
<path d="M14.6563 3.45311C14.225 3.54218 13.9391 3.66405 13.7938 3.82343C13.7141 3.91249 13.7094 3.95936 13.7469 4.32968C13.7703 4.55936 13.7891 4.93905 13.7891 5.17343C13.7891 5.54374 13.775 5.61874 13.6953 5.69843C13.5781 5.81561 13.1188 5.93749 12.8047 5.93749C12.5797 5.93749 11.8063 5.83436 11.5297 5.76874L11.3984 5.73593L11.5391 5.89061C12.1953 6.59843 13.3813 6.7578 14.2438 6.25155C14.8578 5.8953 15.3125 5.08436 15.3125 4.35311C15.3125 4.11405 15.2094 3.65468 15.1109 3.48124L15.0547 3.37343L14.6563 3.45311Z" fill="#FF5733"/>
<path d="M10.9109 6.59843C10.2406 6.71093 9.60781 7.22186 9.27031 7.91561C9.03594 8.39843 8.69844 9.55624 8.55781 10.3672C8.37031 11.4406 8.42187 13.4 8.66094 14.1078C8.85312 14.6891 9.2 15.0687 9.70625 15.2609C9.84219 15.3125 10.8359 15.4906 11.9656 15.6641C13.0719 15.8375 13.9766 15.9828 13.9812 15.9828C13.9859 15.9875 14.3 16.7844 14.6797 17.75C15.4672 19.7469 15.4391 19.6859 15.65 19.9016C15.9687 20.225 16.5547 20.3516 16.9578 20.1781C17.3984 19.9859 17.7031 19.5312 17.7031 19.0484C17.7031 18.8 17.6141 18.5422 16.8312 16.5641C16.3531 15.3453 15.9172 14.2812 15.8656 14.1969C15.7437 14 15.4484 13.7797 15.2234 13.7187C15.1297 13.6953 14.4312 13.5781 13.6719 13.4609C12.9125 13.3437 12.2187 13.2359 12.1297 13.2172L11.9703 13.1891L12.0031 12.5281C12.0219 12.1625 12.0641 11.6891 12.0922 11.4687L12.1484 11.0703L11.6094 10.5312C10.8641 9.78593 10.2172 8.83905 10.1328 8.3703C10.0625 7.98593 10.2875 7.57343 10.6672 7.37655C11.2109 7.10468 11.6703 7.28749 12.0359 7.9203C12.3031 8.37968 12.5469 8.7078 12.5984 8.67499C12.6641 8.63749 12.6453 8.00468 12.575 7.7328C12.4344 7.20311 12.1391 6.81405 11.7781 6.66405C11.5672 6.57968 11.2016 6.55155 10.9109 6.59843Z" fill="#FF5733"/>
<path d="M10.8453 7.50311C10.3156 7.6953 10.1844 8.19218 10.5078 8.7828C11.2719 10.1797 12.5563 11.3 13.9906 11.8156C14.7172 12.0734 16.0484 12.2422 16.4703 12.1297C16.9953 11.9844 17.2391 11.4687 17 11.0047C16.8359 10.6812 16.6625 10.6109 15.8797 10.5734C14.8531 10.5172 14.2906 10.3437 13.5359 9.84218C12.8469 9.3828 12.3828 8.86718 11.7734 7.87811C11.6797 7.71874 11.5672 7.61561 11.4219 7.54061C11.1828 7.42343 11.0938 7.41405 10.8453 7.50311Z" fill="#FF5733"/>
<path d="M0.678117 8.3703L0.52343 8.50624L0.509367 11.75L0.499992 14.9937L0.65468 15.1484C0.76718 15.2609 0.870305 15.3125 1.0203 15.3359C1.1328 15.35 2.59999 15.3594 4.27343 15.35C7.13749 15.3359 7.33437 15.3312 7.45624 15.2515C7.72343 15.0734 7.71874 15.1203 7.71874 11.7734C7.71874 8.46874 7.71874 8.47811 7.47968 8.30936C7.38124 8.24374 7.04843 8.23436 4.09999 8.23436H0.828117L0.678117 8.3703Z" fill="#FF5733"/>
<path d="M19.4141 10.6437C19.0156 10.7703 18.6969 11.0328 18.5094 11.3937C18.4016 11.6 18.3828 11.6891 18.3828 12.0547C18.3828 12.4016 18.4016 12.5141 18.4906 12.6969C18.7203 13.1609 19.1891 13.4891 19.6859 13.5219C19.9344 13.5406 19.9719 13.5312 20.0937 13.4141C20.5859 12.9406 20.5437 11.0094 20.0375 10.6531C19.9109 10.5641 19.6719 10.5594 19.4141 10.6437Z" fill="#FF5733"/>
<path d="M17.2812 11.5297C17.2812 11.6703 17.1078 11.9609 16.9391 12.1109C16.6953 12.3219 16.3953 12.3781 15.6781 12.3406C15.1016 12.3125 15.0781 12.3125 15.0781 12.4016C15.0781 12.5469 15.2703 12.7344 15.4531 12.7625C15.575 12.7812 15.7484 12.7391 16.1281 12.5984C16.4094 12.4906 16.6437 12.4109 16.6484 12.4156C16.6531 12.425 17.1359 13.8359 17.7219 15.5516C18.3125 17.2719 18.8094 18.7016 18.8281 18.7391C18.8609 18.7859 18.9219 18.7484 19.0953 18.5891C19.2172 18.4719 19.4516 18.3031 19.6109 18.2094C21.0734 17.3516 22.9203 17.675 23.9703 18.9781C24.1859 19.2406 24.2469 19.2922 24.3312 19.2687C24.5375 19.2031 24.5375 19.0156 24.3406 18.6734C23.7266 17.6281 22.5969 16.9484 21.35 16.8734L20.9 16.8453L20.7078 16.3484C20.2906 15.2516 19.5641 14.4547 18.4531 13.8734L18.1156 13.6953L17.7453 12.6219C17.4031 11.6187 17.2812 11.3281 17.2812 11.5297Z" fill="#FF5733"/>
<path d="M2.7125 15.9078C2.67969 15.9219 2.62344 15.9922 2.58594 16.0625C2.49687 16.2312 2.4875 17.3281 2.57187 17.4828C2.64219 17.6141 2.75 17.6984 2.85781 17.7031C2.96094 17.7031 2.96094 17.7266 2.82031 18.0687C2.31875 19.2969 1.90625 20.8672 1.90625 21.5328V21.7812H2.71719H3.52344V21.1578C3.52344 20.6375 3.54219 20.4828 3.63125 20.1875C3.86562 19.4516 4.2875 18.8281 4.84531 18.4203C5.38906 18.0172 5.87187 17.825 6.52812 17.75C8.17344 17.5672 9.74375 18.65 10.1844 20.2812C10.2453 20.5016 10.2687 20.7547 10.2687 21.1812L10.2641 21.7812H14.1406H18.0172L17.975 21.4906C17.9516 21.3266 17.9422 21.0641 17.9609 20.9L17.9891 20.6094H14.8719H11.7594L11.6094 20.2437C11.3094 19.5266 11.0844 18.6875 11.0187 18.0219C10.9906 17.7172 10.9906 17.7078 11.1219 17.5953L11.2578 17.4781V16.7984C11.2578 16.1422 11.2531 16.1141 11.1453 15.9969L11.0328 15.875L6.90312 15.8797C4.62969 15.8797 2.74531 15.8937 2.7125 15.9078Z" fill="#FF5733"/>
<path d="M6.20469 18.2937C5.62813 18.4297 5.03281 18.8094 4.65313 19.2781C3.54688 20.6328 3.86563 22.6109 5.3375 23.5625C5.80625 23.8672 6.28438 23.9984 6.89844 23.9984C7.32969 23.9984 7.475 23.9797 7.78906 23.8766C8.73125 23.5625 9.47188 22.7656 9.71563 21.7859C9.82344 21.3594 9.78594 20.6 9.64531 20.1875C9.32188 19.2547 8.52969 18.5375 7.55469 18.2891C7.2125 18.2047 6.57031 18.2047 6.20469 18.2937ZM7.45156 20.1312C8.13594 20.5016 8.23438 21.4484 7.64375 21.9687C7.40469 22.175 7.20781 22.25 6.88906 22.25C6.20469 22.2453 5.69375 21.6781 5.76406 20.9984C5.84844 20.1734 6.71094 19.7281 7.45156 20.1312Z" fill="#FF5733"/>
<path d="M20.6563 18.2891C20.5156 18.3266 20.225 18.4437 20.0094 18.5516C19.2969 18.8984 18.7109 19.6437 18.5234 20.4266C18.4344 20.8109 18.4344 21.4531 18.5234 21.8047C18.9031 23.2906 20.4078 24.2609 21.875 23.9656C22.9672 23.7406 23.7406 23.0562 24.1063 21.9922C24.2656 21.5281 24.2844 20.8578 24.1531 20.375C23.9047 19.4609 23.1922 18.6922 22.2969 18.3734C21.8563 18.2187 21.0641 18.1766 20.6563 18.2891ZM21.8094 20.0703C22.2359 20.2484 22.5125 20.7125 22.475 21.1953C22.4469 21.5234 22.3625 21.7062 22.1469 21.9219C21.9313 22.1422 21.6641 22.25 21.3453 22.25C21.0266 22.25 20.8297 22.175 20.5906 21.9687C19.8969 21.3547 20.1828 20.225 21.0922 19.9953C21.2703 19.9531 21.6078 19.9859 21.8094 20.0703Z" fill="#FF5733"/>
</g>
<defs>
<clipPath id="clip0_7_935">
<rect width="24" height="24" fill="white" transform="translate(0.5 0.5)"/>
</clipPath>
</defs>
</svg>
